<svg width="168" height="168" viewBox="0 0 168 168" fill="none" xmlns="http://www.w3.org/2000/svg">
<path fill-rule="evenodd" clip-rule="evenodd" d="M167.941 49.9254C167.916 49.3203 167.857 48.7068 167.698 48.127C167.639 47.9169 167.521 47.7152 167.446 47.5051C167.269 47.026 167.11 46.5554 166.858 46.1184C166.723 45.8915 166.538 45.7066 166.379 45.4881C166.11 45.11 165.85 44.7234 165.522 44.3956C165.329 44.2107 165.077 44.0595 164.867 43.883C164.539 43.6141 164.237 43.3199 163.859 43.093C163.825 43.0678 163.783 43.0678 163.741 43.0426C163.716 43.0258 163.699 43.009 163.674 42.9922L88.2504 1.05679C85.722 -0.355064 82.6476 -0.34666 80.1024 1.04838L4.32597 42.9838C4.30077 43.009 4.27557 43.0426 4.23357 43.0678C4.20837 43.0762 4.17477 43.0846 4.14957 43.1014C3.85557 43.2695 3.63717 43.5132 3.35997 43.7149C3.05757 43.9418 2.73837 44.1435 2.46957 44.404C2.21757 44.6646 2.02437 44.9671 1.80597 45.2612C1.57917 45.5554 1.32717 45.8159 1.14237 46.1352C0.92397 46.4966 0.806369 46.9084 0.646769 47.3034C0.529169 47.5807 0.377969 47.8412 0.302369 48.1438C0.142769 48.7068 0.0923695 49.3119 0.0587695 49.9086C0.0503695 50.0514 -3.05176e-05 50.1775 -3.05176e-05 50.3288V50.3372V50.3456V117.577C-3.05176e-05 120.627 1.65477 123.443 4.32597 124.922L79.7412 166.832L79.7496 166.84C79.758 166.84 79.758 166.84 79.7664 166.849L79.9344 166.941C80.2956 167.143 80.6904 167.252 81.0684 167.395C81.3372 167.504 81.5976 167.647 81.8832 167.723C82.5636 167.899 83.286 168 84 168C84.714 168 85.4364 167.899 86.1336 167.723C86.4108 167.647 86.6712 167.504 86.9484 167.395C87.3264 167.252 87.7212 167.151 88.0824 166.941L88.2504 166.849C88.2588 166.84 88.2588 166.84 88.2672 166.84L88.2756 166.832L163.691 124.922C166.345 123.443 168 120.627 168 117.577V50.3456V50.3372V50.3288C168 50.1859 167.95 50.0683 167.941 49.9254ZM83.7648 82.8854L25.6872 50.3876L48.888 37.5465L106.294 70.3636L83.7648 82.8854ZM84.168 18.0158L142.304 50.3456L123.455 60.8252L66.0828 28.0249L84.168 18.0158ZM16.8 64.6742L75.6 97.5838V145.318L16.8 112.627V64.6742ZM92.4 145.318L92.4168 97.5922L117.6 83.4905V109.173L134.4 100.769V74.0866L151.2 64.6826V112.627L92.4 145.318Z" fill="#191847"/>
</svg>
